<?xml version="1.0" standalone="no"?><!DOCTYPE svg PUBLIC "-//W3C//DTD SVG 1.1//EN" "http://www.w3.org/Graphics/SVG/1.1/DTD/svg11.dtd"><svg t="1772188115674" class="icon" viewBox="0 0 1024 1024" version="1.1" xmlns="http://www.w3.org/2000/svg" p-id="19677" xmlns:xlink="http://www.w3.org/1999/xlink" width="16" height="16"><path d="M743.49 131.437c-8.98-39.139-20.803-60.906-35.987-66.141a11.206 11.206 0 0 0-5.166-1.261c-0.577 0-1.151 0.017-1.727 0.022-0.198-0.005-0.394-0.022-0.594-0.022-0.409 0-0.812 0.024-1.217 0.045-53.069 0.936-102.804 22.887-140.386 62.076-21.155 22.06-37.048 48.132-47.046 76.557-9.998-28.425-25.891-54.497-47.046-76.557-37.582-39.19-87.317-61.141-140.386-62.076-0.404-0.021-0.808-0.045-1.217-0.045-0.2 0-0.395 0.017-0.594 0.022-0.576-0.005-1.15-0.022-1.727-0.022-1.863 0-3.617 0.46-5.165 1.261-15.183 5.235-27.007 27.002-35.987 66.141-8.862 38.625-13.742 89.806-13.742 144.118 0 54.311 4.88 105.493 13.742 144.118 8.98 39.139 20.803 60.906 35.986 66.141a11.21 11.21 0 0 0 5.166 1.261c0.577 0 1.151-0.017 1.727-0.022 0.199 0.005 0.394 0.022 0.594 0.022 0.409 0 0.812-0.024 1.217-0.045 28.627-0.505 56.279-7.135 81.582-19.277L351.22 913.98c-0.934 7.46 4.357 14.265 11.818 15.199 0.574 0.072 1.143 0.106 1.707 0.106 6.765 0 12.629-5.038 13.491-11.924l0.173-1.423 119.799 29.626v1.226c0 7.519 6.095 13.614 13.614 13.614 7.519 0 13.614-6.095 13.614-13.614v-1.002l121.895-27.543c1.234 6.427 6.868 11.041 13.339 11.041 0.564 0 1.134-0.034 1.707-0.106 7.46-0.933 12.752-7.739 11.818-15.199L631.94 573.405a13.621 13.621 0 0 0-0.427-3.444l-12.58-101.392c24.835 11.624 51.887 17.966 79.868 18.46 0.404 0.021 0.808 0.045 1.217 0.045 0.199 0 0.395-0.017 0.594-0.022 0.576 0.005 1.15 0.022 1.727 0.022 1.864 0 3.618-0.46 5.166-1.261 15.183-5.235 27.006-27.002 35.986-66.141 8.862-38.624 13.742-89.806 13.742-144.118-0.001-54.311-4.881-105.492-13.743-144.117zM464.323 424.953a213.016 213.016 0 0 0 8.027-8.875l25.859 9.666v45.293l-68.672 24.739 5.446-44.757c0.03-0.24 0.036-0.477 0.053-0.716a207.554 207.554 0 0 0 29.287-25.35z m95.589 23.855l-34.476 12.42v-25.307l34.476 12.887z m-34.476 235.53l51.35 14.392-51.35 12.75v-27.142z m-99.477-159.166l72.249 23.464v44.984l-83.492 23.944 11.243-92.392z m43.007-14.66l29.242-10.534v20.031l-29.242-9.497z m29.242 111.433v26.485L451.5 635.339l46.708-13.394z m27.228-64.466l46.331 15.047-46.331 13.287v-28.334z m-27.228-175.873v15.156l-8.938-3.33a212.45 212.45 0 0 0 6.78-11.226l2.158-0.6z m-87.697 270.522l87.698 24.579v41.534l-98.725 24.514 11.027-90.627z m87.697 94.167v26.611L444.221 759.7l53.987-13.405z m27.228 61.301l62.408 15.265-62.408 17.518v-32.783z m0-28.031v-40.031l96.7-24.011 11.221 90.44-107.921-26.398z m0-123.504v-41.924l81.231-23.295 11.31 91.155-92.541-25.936z m0-127.21v-38.682l65.799-23.704 10.828 87.272-76.627-24.886z m0-121.944v-26.935a211.653 211.653 0 0 0 25.108 36.289l-25.108-9.354z m-202.698 57.596a0.47 0.47 0 0 0-0.037 0.001c-1.069-0.477-11.975-6.55-22.153-52.846-8.063-36.676-12.504-85.012-12.504-136.103 0-51.091 4.441-99.427 12.504-136.103 10.18-46.308 21.089-52.372 22.154-52.846h0.035c1.07 0.477 11.975 6.551 22.153 52.845 8.063 36.676 12.504 85.012 12.504 136.104 0 51.092-4.441 99.428-12.504 136.104-10.175 46.282-21.077 52.364-22.152 52.844z m43.455-44.831c8.862-38.624 13.742-89.806 13.742-144.118 0-54.311-4.881-105.493-13.742-144.118-3.983-17.359-8.527-31.292-13.673-41.893 35.979 6.711 69.116 24.667 95.533 52.214 29.421 30.679 47.473 70.071 51.982 112.622-0.664 6.992-1.002 14.056-1.002 21.175s0.338 14.183 1.002 21.175c-4.509 42.551-22.561 81.943-51.982 112.622-26.417 27.547-59.555 45.503-95.533 52.214 5.146-10.601 9.69-24.533 13.673-41.893z m29.268 356.133l102.747 25.131v47.085L382.73 880.435l12.731-104.63z m24.689 122.406l78.058-21.91v41.214l-78.058-19.304z m105.286-29.553l111.806-31.383 6.678 53.824-118.484 26.773v-49.214z m49.248-459.307c-29.42-30.679-47.473-70.071-51.982-112.622 0.664-6.992 1.002-14.056 1.002-21.175s-0.338-14.183-1.002-21.175c4.509-42.55 22.561-81.943 51.982-112.622 26.417-27.547 59.555-45.503 95.533-52.214-5.146 10.601-9.69 24.534-13.673 41.893-8.862 38.625-13.742 89.806-13.742 144.118 0 54.311 4.881 105.493 13.742 144.118 3.983 17.359 8.527 31.292 13.673 41.893-35.979-6.71-69.116-24.667-95.533-52.214z m147.504 2.307c-10.178 46.296-21.084 52.369-22.153 52.846l-0.036-0.001c-1.075-0.48-11.977-6.563-22.152-52.845-8.063-36.676-12.503-85.012-12.503-136.103 0-51.091 4.44-99.427 12.503-136.103C688.025 93.157 698.93 87.083 700 86.606h0.035c1.065 0.474 11.973 6.538 22.154 52.846 8.063 36.676 12.503 85.012 12.503 136.103-0.001 51.091-4.441 99.427-12.504 136.103z" p-id="19678"></path></svg>