<?xml version="1.0" standalone="no"?><!DOCTYPE svg PUBLIC "-//W3C//DTD SVG 1.1//EN" "http://www.w3.org/Graphics/SVG/1.1/DTD/svg11.dtd"><svg t="1772188089497" class="icon" viewBox="0 0 1024 1024" version="1.1" xmlns="http://www.w3.org/2000/svg" p-id="18607" xmlns:xlink="http://www.w3.org/1999/xlink" width="16" height="16"><path d="M685.129143 837.851429H125.098667c-48.493714 0-88.064 38.66819-88.064 86.747428 0 48.030476 39.570286 86.747429 88.039619 86.747429h560.054857c48.469333 0 88.015238-38.692571 88.015238-86.747429 0-48.079238-39.545905-86.747429-88.015238-86.747428z m-560.030476 60.952381H685.104762c15.11619 0 27.062857 11.702857 27.062857 25.795047 0 14.09219-11.946667 25.795048-27.062857 25.795048H125.098667c-15.11619 0-27.111619-11.702857-27.111619-25.795048 0-14.09219 11.971048-25.795048 27.087238-25.795047z" fill="#5AC2EE" p-id="18608"></path><path d="M685.129143 725.333333c48.469333 0 88.015238 38.692571 88.015238 86.747429 0 46.518857-37.059048 84.23619-83.358476 86.601143l-4.632381 0.121905v-60.952381c15.09181 0 27.062857-11.702857 27.062857-25.770667 0-13.165714-10.435048-24.234667-24.112762-25.648762l-2.974476-0.146286H125.098667c-15.11619 0-27.111619 11.702857-27.111619 25.795048 0 13.141333 10.435048 24.210286 24.112762 25.624381l2.974476 0.146286v60.952381c-48.469333 0-88.015238-38.66819-88.015238-86.723048 0-46.518857 37.059048-84.23619 83.358476-86.625524l4.656762-0.121905h560.054857zM306.590476 267.727238l23.698286 56.173714c-103.643429 43.739429-174.713905 106.057143-182.588952 163.644953-5.046857 36.985905 18.602667 110.372571 55.247238 181.833143l4.144762 7.923809-53.930667 28.428191c-44.641524-84.650667-73.362286-171.422476-65.852953-226.425905 11.288381-82.651429 93.696-156.672 210.651429-207.872l8.630857-3.705905z" fill="#5AC2EE" p-id="18609"></path><path d="M399.725714 347.91619l22.966857 56.466286c-110.908952 45.104762-155.111619 75.312762-160.987428 106.276572-4.583619 24.088381 26.258286 93.403429 68.827428 156.793904l4.291048 6.339048-50.200381 34.54781c-54.296381-78.848-91.794286-161.816381-82.797714-209.091048 11.166476-58.709333 64.414476-96.304762 188.903619-147.626667l9.020952-3.705905z" fill="#5AC2EE" p-id="18610"></path><path d="M624.956952 145.65181l-127.609904 31.987809-0.804572-2.511238c-7.484952-23.210667-32.329143-36.327619-55.661714-28.40381L366.933333 171.690667a44.714667 44.714667 0 0 0-27.794285 55.515428l52.662857 171.641905c7.387429 23.552 32.426667 36.937143 55.929905 28.672L521.752381 402.529524l3.510857-1.414095a44.982857 44.982857 0 0 0 24.527238-53.881905l-2.072381-6.948572 123.12381-54.174476-2.29181 0.902095c22.649905-7.875048 34.57219-32.670476 27.550476-55.344761l-17.603047-56.685715a43.471238 43.471238 0 0 0-52.540953-29.647238l-1.024 0.292572z m0.121905 62.805333l8.533333 27.452952-122.758095 54.052572-1.145905 0.487619c-20.358095 9.020952-30.817524 32.329143-24.380952 53.881904l1.682286 5.60762-42.130286 14.189714-42.910476-139.946667 41.788952-14.116571 0.463238 1.340952 1.243429 3.413333a43.78819 43.78819 0 0 0 51.053714 25.941334l1.097143-0.365715 127.463619-31.939047zM752.054857 143.945143a39.862857 39.862857 0 1 0 0 79.725714 39.862857 39.862857 0 0 0 0-79.725714z m0 18.773333a21.089524 21.089524 0 1 1 0 42.179048 21.089524 21.089524 0 0 1 0-42.179048zM845.824 87.673905a39.862857 39.862857 0 1 0 0 79.725714 39.862857 39.862857 0 0 0 0-79.725714z m0 18.773333a21.089524 21.089524 0 1 1 0 42.179048 21.089524 21.089524 0 0 1 0-42.179048zM902.095238 12.678095a39.862857 39.862857 0 1 0 0 79.676953A39.862857 39.862857 0 0 0 902.095238 12.678095z m0 18.724572a21.089524 21.089524 0 1 1 0 42.203428 21.089524 21.089524 0 0 1 0-42.179047zM939.593143 87.673905a39.862857 39.862857 0 1 0 0 79.725714 39.862857 39.862857 0 0 0 0-79.725714z m0 18.773333a21.089524 21.089524 0 1 1 0 42.179048 21.089524 21.089524 0 0 1 0-42.179048z" fill="#5AC2EE" p-id="18611"></path><path d="M864.597333 162.694095a39.862857 39.862857 0 1 0 0 79.725715 39.862857 39.862857 0 0 0 0-79.725715z m0 18.773334a21.089524 21.089524 0 1 1 0 42.179047 21.089524 21.089524 0 0 1 0-42.179047zM958.366476 181.443048a39.862857 39.862857 0 1 0 0 79.725714 39.862857 39.862857 0 0 0 0-79.725714z m0 18.773333a21.089524 21.089524 0 1 1 0 42.179048 21.089524 21.089524 0 0 1 0-42.179048z" fill="#5AC2EE" p-id="18612"></path></svg>